<svg width="371" height="140" viewBox="0 0 371 140" fill="none" xmlns="http://www.w3.org/2000/svg">
<g opacity="0.6" clip-path="url(#clip0_1_578)">
<path d="M-95.22 55.9254L-12.7351 -16.715C-2.32279 -25.8846 10.5893 -28.4913 21.8535 -23.682C37.878 -16.8567 56.2674 -20.5477 71.0905 -33.6016L147.841 -101.192M150.783 -95.9926L73.7293 -28.1349C59.14 -15.2868 41.0434 -11.6395 25.266 -18.3707C13.7535 -23.2827 0.549734 -20.6237 -10.0962 -11.2483L-92.2846 61.1309M153.728 -90.7898L76.3723 -22.6669C62.0144 -10.0226 44.2042 -6.43767 28.6765 -13.0576C16.9138 -18.0755 3.43083 -15.3656 -7.45332 -5.78047L-89.3339 66.3277M156.667 -85.5881L79.0111 -17.2001C64.8868 -4.76157 47.3642 -1.23051 32.0888 -7.74648C20.0743 -12.8737 6.29427 -10.0967 -4.80559 -0.321609L-86.394 71.5293M159.609 -80.3883L81.6408 -11.7252C67.7458 0.51152 50.5206 3.99497 35.49 -2.42501C23.2231 -7.65618 9.15726 -4.82218 -2.18301 5.16464L-83.4502 76.7326M162.553 -75.1853L84.2924 -6.26495C70.6311 5.76593 53.6848 9.17917 38.9114 2.87844C26.3949 -2.46399 12.0408 0.428985 0.466887 10.6216L-80.5081 81.9323M165.495 -69.9857L86.9335 -0.800197C73.5036 11.0269 56.8472 14.3844 42.3109 8.19619C29.5438 2.7531 14.8998 5.70181 3.09668 16.0963L-77.5705 87.1359M168.437 -64.7809L89.5698 4.67372C76.3736 16.295 60.0012 19.5922 45.7281 13.5033C32.7131 7.95231 17.781 10.9599 5.74416 21.5601L-74.622 92.3346M171.379 -59.5812L92.2153 10.1346C79.2505 21.552 63.1681 24.7935 49.145 18.8107C35.8782 13.1504 20.6579 16.2169 8.38739 27.0229L-71.6821 97.5362M174.321 -54.3816L94.8538 15.6013C82.1205 26.8149 66.3314 30.0075 52.5573 24.122C39.038 18.3577 23.5319 21.4812 11.03 32.4911L-68.7362 102.737M177.265 -49.1787L97.4988 21.0674C84.9968 32.0772 69.4907 35.2009 55.9697 29.4333C42.1955 23.5478 26.4043 26.7423 13.6709 37.9559L-65.7964 107.939M180.205 -43.9771L100.135 26.5361C87.867 37.3402 72.6468 40.4069 59.3777 34.7486C45.3587 28.767 29.2722 32.0072 16.3074 43.4247L-62.8566 113.14M183.14 -38.7662L102.778 32.0043C90.7413 42.6045 75.8091 45.6121 62.7901 40.0597C48.5192 33.9689 32.1487 37.2694 18.9502 48.8927L-59.9172 118.347M186.091 -33.5742L105.426 37.4634C93.6202 47.8598 78.9762 50.8083 66.2114 45.3632C51.6863 39.1651 35.0299 42.5227 21.5999 54.3498L-56.9708 123.543M189.033 -28.3748L108.058 42.9359C96.4841 53.1285 82.1335 56.0281 69.6152 50.6823C54.8423 44.3763 37.8956 47.7948 24.2342 59.8257L-54.0265 128.746M191.975 -23.1699L110.698 48.406C99.3582 58.3928 85.2883 61.2255 73.0254 55.9957C58.0001 49.5857 40.7657 53.0578 26.8729 65.2925L-51.0845 133.946M194.917 -17.9701L113.339 53.8708C102.231 63.6538 88.4506 66.4309 76.4468 61.2991C61.1642 54.7944 43.647 58.311 29.5205 70.7515L-48.1425 139.145M197.852 -12.7646L115.978 59.3376C105.101 68.9168 91.6088 71.6349 79.848 66.6204C64.3207 59.9951 46.5122 63.5831 32.1543 76.2274L-45.2009 144.35M200.802 -7.56736L118.621 64.8059C107.975 74.1813 94.7711 76.8402 83.2586 71.9283C67.4829 65.2004 49.3778 68.8501 34.793 81.6942L-42.2589 149.55M203.743 -2.36606L121.26 70.2724C110.848 79.442 97.9333 82.0506 86.6691 77.2413C70.6469 70.4141 52.2551 74.1068 37.4343 87.1587L-39.3165 154.749" stroke="url(#paint0_linear_1_578)" stroke-miterlimit="10"/>
</g>
<defs>
<linearGradient id="paint0_linear_1_578" x1="-65.6874" y1="71.363" x2="228.545" y2="-62.6243" gradientUnits="userSpaceOnUse">
<stop stop-color="#515151"/>
<stop offset="1" stop-color="#515151" stop-opacity="0"/>
</linearGradient>
<clipPath id="clip0_1_578">
<rect width="374" height="137" fill="white" transform="translate(-19.834 4.72266) rotate(-11.3686)"/>
</clipPath>
</defs>
</svg>
